<svg aria-hidden="true" style="position: absolute; width: 0; height: 0; overflow: hidden;" version="1.1" xmlns="http://www.w3.org/2000/svg" xmlns:xlink="http://www.w3.org/1999/xlink">
<defs>
  <symbol version="1.1" id="phone" xmlns="http://www.w3.org/2000/svg" xmlns:xlink="http://www.w3.org/1999/xlink" x="0px" y="0px" enable-background="new 0 0 122.88 122.267" xml:space="preserve" viewBox="0 0 122.88 122.267">
    <g>
      <path d="M33.822,50.291c4.137,7.442,8.898,14.604,15.074,21.133C55.1,77.984,62.782,83.962,72.771,89.03l0.01,0.005l0.002-0.005 c0.728,0.371,1.421,0.362,2.072,0.118c0.944-0.353,1.927-1.137,2.883-2.086c0.729-0.726,1.643-1.924,2.631-3.223 c3.846-5.054,8.601-11.301,15.314-8.193c0.142,0.065,0.276,0.141,0.402,0.226l22.373,12.852c0.08,0.046,0.157,0.095,0.23,0.147 c2.966,2.036,4.177,5.172,4.19,8.683c0.014,3.621-1.329,7.674-3.274,11.101c-2.565,4.517-6.387,7.502-10.761,9.525 c-4.17,1.928-8.798,2.954-13.267,3.608c-6.989,1.025-13.578,0.374-20.288-1.692c-6.55-2.017-13.176-5.385-20.4-9.86l-0.526-0.326 c-3.326-2.06-6.906-4.276-10.389-6.904C31.108,93.296,18.007,79.283,9.512,63.904C2.361,50.958-1.552,36.995,0.581,23.681 C1.75,16.375,4.901,9.743,10.333,5.35c4.762-3.853,11.188-5.94,19.448-5.203c0.973,0.084,1.793,0.639,2.255,1.419l0.006-0.003 l14.324,24.27c2.11,2.718,2.344,5.415,1.203,8.096c-0.943,2.218-2.892,4.251-5.476,6.168c-0.786,0.65-1.708,1.325-2.659,2.021 C36.236,44.459,32.578,47.136,33.822,50.291L33.822,50.291z M44.67,75.422C38.066,68.44,33.035,60.88,28.695,53.065 c-0.076-0.123-0.144-0.253-0.202-0.39c-3.174-7.459,2.52-11.625,7.493-15.262c0.845-0.618,1.663-1.217,2.401-1.829l0.002,0.003 c0.043-0.036,0.088-0.071,0.135-0.105c1.843-1.354,3.171-2.647,3.678-3.837c0.289-0.679,0.182-1.426-0.466-2.265 c-0.111-0.129-0.213-0.271-0.303-0.423L27.795,5.852c-5.869-0.241-10.419,1.321-13.784,4.044 c-4.239,3.429-6.723,8.759-7.674,14.699c-1.905,11.894,1.716,24.594,8.292,36.5c8.078,14.623,20.575,27.977,32.864,37.25 c3.379,2.55,6.776,4.653,9.932,6.607l0.526,0.326c6.818,4.223,13.017,7.386,19.052,9.244c5.876,1.809,11.634,2.38,17.729,1.486 c4.009-0.587,8.113-1.485,11.668-3.129c3.351-1.55,6.248-3.785,8.134-7.104c1.496-2.637,2.53-5.653,2.521-8.222 c-0.006-1.63-0.472-3.029-1.605-3.844L93.2,80.93c-2.461-1.081-5.629,3.081-8.193,6.45c-1.104,1.452-2.125,2.792-3.156,3.817 c-1.477,1.466-3.118,2.723-4.962,3.411c-2.136,0.799-4.395,0.834-6.755-0.37l0.002-0.004C59.522,88.849,51.323,82.457,44.67,75.422 L44.67,75.422z"></path>
    </g>
  </symbol>
  <symbol version="1.1" id="map" xmlns="http://www.w3.org/2000/svg" xmlns:xlink="http://www.w3.org/1999/xlink" x="0px" y="0px" xml:space="preserve" viewBox="0 0 92.26 122.88">
    <g>
      <path d="M47.49,116.85c6.31-4.01,11.98-8.87,16.92-14.29c10.73-11.75,17.97-26.11,20.87-40.2c2.88-13.91,1.52-27.54-4.85-38.06 c-1.81-3.02-4.08-5.78-6.78-8.26c-7.74-7.05-16.6-10.41-25.52-10.5c-9.37-0.07-18.87,3.45-27.27,10.14 c-3.58,2.86-6.53,6.15-8.82,9.78c-5.9,9.28-7.69,20.8-5.74,32.85c1.97,12.23,7.78,25.02,17.04,36.61 c6.44,8.08,14.54,15.58,24.18,21.91L47.49,116.85L47.49,116.85z M46.13,21.16c7.05,0,13.45,2.86,18.06,7.49 c4.63,4.63,7.49,11,7.49,18.06c0,7.05-2.86,13.45-7.49,18.06c-4.63,4.63-11,7.49-18.06,7.49c-7.05,0-13.45-2.86-18.06-7.49 c-4.63-4.63-7.49-11-7.49-18.06c0-7.05,2.86-13.45,7.49-18.06C32.7,24.02,39.07,21.16,46.13,21.16L46.13,21.16z M60.51,32.33 c-3.67-3.67-8.78-5.97-14.38-5.97c-5.63,0-10.71,2.27-14.38,5.97c-3.67,3.67-5.97,8.78-5.97,14.38c0,5.63,2.27,10.71,5.97,14.38 c3.67,3.67,8.78,5.97,14.38,5.97c5.63,0,10.71-2.27,14.38-5.97c3.67-3.67,5.97-8.78,5.97-14.38C66.47,41.08,64.21,36,60.51,32.33 L60.51,32.33z M68.52,106.27c-5.6,6.12-12.09,11.61-19.42,16.06c-0.88,0.66-2.13,0.75-3.13,0.11 c-10.8-6.87-19.85-15.13-26.99-24.09C9.15,86.02,2.94,72.34,0.83,59.16c-2.15-13.36-0.14-26.2,6.51-36.68 c2.63-4.13,5.97-7.89,10.07-11.14C26.78,3.88,37.51-0.07,48.17,0c10.28,0.09,20.42,3.9,29.22,11.93c3.09,2.81,5.67,5.99,7.78,9.48 c7.15,11.77,8.69,26.81,5.56,42.01c-3.11,15.04-10.8,30.33-22.18,42.8L68.52,106.27L68.52,106.27z"></path>
    </g>
  </symbol>
   <symbol version="1.1" id="calendar" xmlns="http://www.w3.org/2000/svg" xmlns:xlink="http://www.w3.org/1999/xlink" x="0px" y="0px" xml:space="preserve" viewBox="0 0 122.88 122.88">
    <g>
      <path d="M81.61,4.73c0-2.61,2.58-4.73,5.77-4.73c3.19,0,5.77,2.12,5.77,4.73v20.72c0,2.61-2.58,4.73-5.77,4.73 c-3.19,0-5.77-2.12-5.77-4.73V4.73L81.61,4.73z M66.11,103.81c-0.34,0-0.61-1.43-0.61-3.2c0-1.77,0.27-3.2,0.61-3.2H81.9 c0.34,0,0.61,1.43,0.61,3.2c0,1.77-0.27,3.2-0.61,3.2H66.11L66.11,103.81z M15.85,67.09c-0.34,0-0.61-1.43-0.61-3.2 c0-1.77,0.27-3.2,0.61-3.2h15.79c0.34,0,0.61,1.43,0.61,3.2c0,1.77-0.27,3.2-0.61,3.2H15.85L15.85,67.09z M40.98,67.09 c-0.34,0-0.61-1.43-0.61-3.2c0-1.77,0.27-3.2,0.61-3.2h15.79c0.34,0,0.61,1.43,0.61,3.2c0,1.77-0.27,3.2-0.61,3.2H40.98 L40.98,67.09z M66.11,67.09c-0.34,0-0.61-1.43-0.61-3.2c0-1.77,0.27-3.2,0.61-3.2H81.9c0.34,0,0.61,1.43,0.61,3.2 c0,1.77-0.27,3.2-0.61,3.2H66.11L66.11,67.09z M91.25,67.09c-0.34,0-0.61-1.43-0.61-3.2c0-1.77,0.27-3.2,0.61-3.2h15.79 c0.34,0,0.61,1.43,0.61,3.2c0,1.77-0.27,3.2-0.61,3.2H91.25L91.25,67.09z M15.85,85.45c-0.34,0-0.61-1.43-0.61-3.2 c0-1.77,0.27-3.2,0.61-3.2h15.79c0.34,0,0.61,1.43,0.61,3.2c0,1.77-0.27,3.2-0.61,3.2H15.85L15.85,85.45z M40.98,85.45 c-0.34,0-0.61-1.43-0.61-3.2c0-1.77,0.27-3.2,0.61-3.2h15.79c0.34,0,0.61,1.43,0.61,3.2c0,1.77-0.27,3.2-0.61,3.2H40.98 L40.98,85.45z M66.11,85.45c-0.34,0-0.61-1.43-0.61-3.2c0-1.77,0.27-3.2,0.61-3.2H81.9c0.34,0,0.61,1.43,0.61,3.2 c0,1.77-0.27,3.2-0.61,3.2H66.11L66.11,85.45z M91.25,85.45c-0.34,0-0.61-1.43-0.61-3.2c0-1.77,0.27-3.2,0.61-3.2h15.79 c0.34,0,0.61,1.43,0.61,3.2c0,1.77-0.27,3.2-0.61,3.2H91.25L91.25,85.45z M15.85,103.81c-0.34,0-0.61-1.43-0.61-3.2 c0-1.77,0.27-3.2,0.61-3.2h15.79c0.34,0,0.61,1.43,0.61,3.2c0,1.77-0.27,3.2-0.61,3.2H15.85L15.85,103.81z M40.98,103.81 c-0.34,0-0.61-1.43-0.61-3.2c0-1.77,0.27-3.2,0.61-3.2h15.79c0.34,0,0.61,1.43,0.61,3.2c0,1.77-0.27,3.2-0.61,3.2H40.98 L40.98,103.81z M29.61,4.73c0-2.61,2.58-4.73,5.77-4.73s5.77,2.12,5.77,4.73v20.72c0,2.61-2.58,4.73-5.77,4.73 s-5.77-2.12-5.77-4.73V4.73L29.61,4.73z M6.4,45.32h110.07V21.47c0-0.8-0.33-1.53-0.86-2.07c-0.53-0.53-1.26-0.86-2.07-0.86H103 c-1.77,0-3.2-1.43-3.2-3.2c0-1.77,1.43-3.2,3.2-3.2h10.55c2.57,0,4.9,1.05,6.59,2.74c1.69,1.69,2.74,4.02,2.74,6.59v27.06v65.03 c0,2.57-1.05,4.9-2.74,6.59c-1.69,1.69-4.02,2.74-6.59,2.74H9.33c-2.57,0-4.9-1.05-6.59-2.74C1.05,118.45,0,116.12,0,113.55V48.52 V21.47c0-2.57,1.05-4.9,2.74-6.59c1.69-1.69,4.02-2.74,6.59-2.74H20.6c1.77,0,3.2,1.43,3.2,3.2c0,1.77-1.43,3.2-3.2,3.2H9.33 c-0.8,0-1.53,0.33-2.07,0.86c-0.53,0.53-0.86,1.26-0.86,2.07V45.32L6.4,45.32z M116.48,51.73H6.4v61.82c0,0.8,0.33,1.53,0.86,2.07 c0.53,0.53,1.26,0.86,2.07,0.86h104.22c0.8,0,1.53-0.33,2.07-0.86c0.53-0.53,0.86-1.26,0.86-2.07V51.73L116.48,51.73z M50.43,18.54 c-1.77,0-3.2-1.43-3.2-3.2c0-1.77,1.43-3.2,3.2-3.2h21.49c1.77,0,3.2,1.43,3.2,3.2c0,1.77-1.43,3.2-3.2,3.2H50.43L50.43,18.54z"></path>
    </g>
  </symbol>
  <symbol id="instagram" xmlns="http://www.w3.org/2000/svg" viewBox="0 0 122.88 122.88">
    <title>instagram-logo-black-and-white</title>
    <path d="M61.45,0C44.76,0,42.66.07,36.11.37A45.08,45.08,0,0,0,21.2,3.23a29.86,29.86,0,0,0-10.88,7.08,30.26,30.26,0,0,0-7.1,10.88A44.92,44.92,0,0,0,.37,36.11C.08,42.66,0,44.75,0,61.44S.07,80.21.37,86.77a45.08,45.08,0,0,0,2.86,14.91,30.12,30.12,0,0,0,7.08,10.88,30.13,30.13,0,0,0,10.88,7.1,45.17,45.17,0,0,0,14.92,2.85c6.55.3,8.64.37,25.33.37s18.77-.07,25.33-.37a45.17,45.17,0,0,0,14.92-2.85,31.54,31.54,0,0,0,18-18,45.6,45.6,0,0,0,2.86-14.91c.29-6.55.37-8.64.37-25.33s-.08-18.78-.37-25.33a45.66,45.66,0,0,0-2.86-14.92,30.1,30.1,0,0,0-7.09-10.88,29.77,29.77,0,0,0-10.88-7.08A45.14,45.14,0,0,0,86.76.37C80.2.07,78.12,0,61.43,0ZM55.93,11.07h5.52c16.4,0,18.34.06,24.82.36a34,34,0,0,1,11.41,2.11,19,19,0,0,1,7.06,4.6,19.16,19.16,0,0,1,4.6,7.06,34,34,0,0,1,2.11,11.41c.3,6.47.36,8.42.36,24.82s-.06,18.34-.36,24.82a33.89,33.89,0,0,1-2.11,11.4A20.35,20.35,0,0,1,97.68,109.3a33.64,33.64,0,0,1-11.41,2.12c-6.47.3-8.42.36-24.82.36s-18.35-.06-24.83-.36a34,34,0,0,1-11.41-2.12,19,19,0,0,1-7.07-4.59,19,19,0,0,1-4.59-7.06,34,34,0,0,1-2.12-11.41c-.29-6.48-.35-8.42-.35-24.83s.06-18.34.35-24.82a33.7,33.7,0,0,1,2.12-11.41,19,19,0,0,1,4.59-7.06,19.12,19.12,0,0,1,7.07-4.6A34.22,34.22,0,0,1,36.62,11.4c5.67-.25,7.86-.33,19.31-.34Zm38.31,10.2a7.38,7.38,0,1,0,7.38,7.37,7.37,7.37,0,0,0-7.38-7.37ZM61.45,29.89A31.55,31.55,0,1,0,93,61.44,31.56,31.56,0,0,0,61.45,29.89Zm0,11.07A20.48,20.48,0,1,1,41,61.44,20.48,20.48,0,0,1,61.45,41Z"></path>
  </symbol>
  <symbol xmlns="http://www.w3.org/2000/svg" shape-rendering="geometricPrecision" text-rendering="geometricPrecision" image-rendering="optimizeQuality" fill-rule="evenodd" clip-rule="evenodd" viewBox="0 0 512 380.24" id="web-page">
    <path d="M34.66 0h442.68C496.4 0 512 15.6 512 34.66v310.92c0 19.06-15.6 34.66-34.66 34.66H34.66C15.6 380.24 0 364.64 0 345.58V34.66C0 15.6 15.6 0 34.66 0zm173.92 264.36c5.76 5.04 6.34 13.81 1.3 19.57-5.05 5.76-13.81 6.35-19.57 1.3l-52.73-46.19c-5.76-5.05-6.35-13.81-1.3-19.58.43-.49.89-.94 1.37-1.36l52.66-46.14c5.76-5.04 14.52-4.46 19.57 1.31 5.04 5.76 4.46 14.52-1.3 19.57l-40.82 35.76 40.82 35.76zm113.11 20.87c-5.76 5.05-14.52 4.46-19.57-1.3-5.04-5.76-4.46-14.53 1.3-19.57l40.82-35.76-40.82-35.76c-5.76-5.05-6.34-13.81-1.3-19.57 5.05-5.77 13.81-6.35 19.57-1.31l52.66 46.14c.48.42.94.87 1.37 1.36 5.05 5.77 4.46 14.53-1.3 19.58l-52.73 46.19zm-65.95-124.31c1.74-7.47 9.22-12.12 16.69-10.38 7.47 1.74 12.12 9.22 10.38 16.69l-30.13 129.04c-1.74 7.48-9.22 12.13-16.69 10.39-7.47-1.74-12.12-9.22-10.38-16.69l30.13-129.05zM22.03 97.05v251.91a9.56 9.56 0 0 0 9.59 9.59H481.8a9.56 9.56 0 0 0 9.59-9.59V97.05H22.03zm422.32-58.09c9.46 0 17.12 7.67 17.12 17.12 0 9.46-7.66 17.12-17.12 17.12-9.45 0-17.12-7.66-17.12-17.12 0-9.45 7.67-17.12 17.12-17.12zm-116.03 0c9.46 0 17.12 7.67 17.12 17.12 0 9.46-7.66 17.12-17.12 17.12-9.45 0-17.11-7.66-17.11-17.12 0-9.45 7.66-17.12 17.11-17.12zm58.02 0c9.45 0 17.12 7.67 17.12 17.12 0 9.46-7.67 17.12-17.12 17.12-9.45 0-17.12-7.66-17.12-17.12 0-9.45 7.67-17.12 17.12-17.12z"></path>
  </symbol>
<symbol id="email" viewBox="0 0 44 32">
<path d="M2.538 0h39.177c0.698 0 1.333 0.286 1.792 0.745s0.745 1.096 0.745 1.793v26.924c0 0.526-0.162 1.016-0.44 1.423-0.051 0.131-0.13 0.254-0.238 0.358-0.072 0.068-0.152 0.124-0.236 0.166-0.441 0.368-1.008 0.592-1.623 0.592h-39.177c-0.698 0-1.333-0.286-1.793-0.745-0.459-0.46-0.745-1.094-0.745-1.793v-26.924c0-0.699 0.285-1.334 0.745-1.793s1.094-0.745 1.793-0.745v0zM1.947 28.394l13.73-13.764-13.73-11.194v24.959zM17.189 15.862l-14.155 14.191h38.067l-13.527-14.189-4.46 3.8c-0.35 0.299-0.873 0.316-1.244 0.015l-4.681-3.817zM29.054 14.603l13.253 13.901v-25.191l-13.253 11.291zM3.193 1.947l19.275 15.716 18.447-15.716h-37.722z"></path>
</symbol>
<symbol id="linkedin" viewBox="0 0 32 32">
<path d="M29 0.75h-26c-0.007-0-0.015-0-0.023-0-1.221 0-2.212 0.982-2.227 2.199v26.106c0.018 1.216 1.008 2.195 2.227 2.195 0.008 0 0.016-0 0.024-0h25.999c0.005 0 0.011 0 0.018 0 1.222 0 2.215-0.983 2.232-2.201l0-0.002v-26.105c-0.022-1.216-1.013-2.193-2.232-2.193-0.006 0-0.013 0-0.019 0h0.001zM9.793 26.75h-4.527v-14.568h4.527zM7.543 10.197c-0.001 0-0.002 0-0.003 0-1.45 0-2.625-1.175-2.625-2.625s1.175-2.625 2.625-2.625c1.45 0 2.625 1.175 2.625 2.625v0c-0.003 1.448-1.177 2.62-2.625 2.62-0.004 0-0.007 0-0.011-0h0.001zM26.75 26.75h-4.527v-7.087c0-1.688-0.030-3.86-2.352-3.86s-2.718 1.84-2.718 3.75v7.197h-4.52v-14.568h4.34v2h0.060c0.605-1.145 2.080-2.353 4.282-2.353 4.585-0.010 5.435 3.008 5.435 6.92z"></path>
</symbol>
<symbol id="redux" viewBox="0 0 32 32">
<path d="M22.172 22.027c-2.25 4.6-6.19 7.695-11.402 8.713-0.71 0.181-1.524 0.285-2.364 0.285-0.028 0-0.056-0-0.083-0l0.004 0c-3 0-5.75-1.25-7.085-3.297-1.792-2.727-2.402-8.51 3.507-12.787 0.12 0.652 0.365 1.548 0.527 2.077-1.153 0.863-2.088 1.951-2.752 3.206l-0.025 0.052c-1.1 2.16-0.978 4.317 0.325 6.313 0.9 1.345 2.325 2.163 4.158 2.413 0.415 0.055 0.894 0.087 1.381 0.087 1.927 0 3.738-0.495 5.313-1.366l-0.057 0.029c3.178-1.67 5.295-3.665 6.68-6.392-0.378-0.391-0.621-0.914-0.652-1.494l-0-0.006c-0.001-0.024-0.001-0.051-0.001-0.079 0-1.23 0.974-2.232 2.192-2.278l0.004-0h0.085c0.003-0 0.007-0 0.011-0 1.263 0 2.288 1.024 2.288 2.288 0 1.179-0.892 2.15-2.039 2.274l-0.010 0.001zM29.34 16.977c3.052 3.46 3.135 7.532 1.955 9.895-1.1 2.157-4 4.317-7.9 4.317-1.917-0.040-3.717-0.502-5.324-1.295l0.074 0.033c0.573-0.407 1.385-1.060 1.832-1.468 1.178 0.524 2.55 0.837 3.993 0.855l0.007 0c2.525 0 4.438-1.18 5.578-3.337 0.733-1.425 0.775-3.095 0.082-4.805-0.879-2.187-2.376-3.973-4.274-5.186l-0.044-0.026c-2.43-1.658-5.431-2.648-8.664-2.648-0.007 0-0.015 0-0.022 0h-0.731c-0.348 0.789-1.105 1.34-1.995 1.385l-0.005 0h-0.078c-1.248-0.016-2.254-1.032-2.254-2.282 0-1.224 0.964-2.224 2.174-2.28l0.005-0h0.082c0.867 0.001 1.619 0.491 1.994 1.21l0.006 0.012h0.652c5.2 0 9.765 1.995 12.855 5.62zM8.652 22.727c-0.006-0.056-0.010-0.121-0.010-0.187 0-0.37 0.11-0.714 0.299-1.002l-0.004 0.007c-2.28-3.95-3.5-8.957-1.627-14.17 1.342-3.917 4.723-6.565 8.387-6.565 3.91 0 7.982 3.423 8.47 10.017-0.61-0.203-1.5-0.5-2.035-0.61-0.133-2.158-1.955-7.532-6.273-7.452-1.547 0.042-3.828 0.775-5 2.28-1.397 1.719-2.285 3.901-2.409 6.286l-0.001 0.027c-0.036 0.387-0.056 0.836-0.056 1.29 0 2.865 0.809 5.542 2.21 7.814l-0.037-0.064c0.070-0.026 0.151-0.042 0.236-0.042 0.017 0 0.034 0.001 0.051 0.002l-0.002-0h0.080c0.012-0 0.027-0 0.041-0 1.259 0 2.28 1.021 2.28 2.28 0 1.245-0.998 2.257-2.237 2.28l-0.002 0h-0.082c-1.229-0.005-2.229-0.976-2.28-2.193l-0-0.005z"></path>
</symbol>
<symbol id="react" viewBox="0 0 32 32">
<path d="M18.85 16c0 1.574-1.276 2.85-2.85 2.85s-2.85-1.276-2.85-2.85c0-1.574 1.276-2.85 2.85-2.85s2.85 1.276 2.85 2.85z"></path>
<path d="M26.825 11.3c-0.55-0.2-1.125-0.4-1.725-0.575 0.15-0.6 0.275-1.2 0.375-1.775 0.525-3.3-0.050-5.625-1.65-6.525-0.475-0.275-1-0.4-1.6-0.4-1.75 0-3.975 1.3-6.225 3.475-2.25-2.175-4.475-3.475-6.225-3.475-0.6 0-1.125 0.125-1.6 0.4-1.6 0.925-2.175 3.25-1.65 6.525 0.1 0.575 0.225 1.175 0.375 1.775-0.6 0.175-1.175 0.35-1.725 0.575-3.125 1.2-4.825 2.85-4.825 4.7s1.725 3.5 4.825 4.7c0.55 0.2 1.125 0.4 1.725 0.575-0.15 0.6-0.275 1.2-0.375 1.775-0.525 3.3 0.050 5.625 1.65 6.525 0.475 0.275 1 0.4 1.6 0.4 1.775 0 4-1.3 6.225-3.475 2.25 2.175 4.475 3.475 6.225 3.475 0.6 0 1.125-0.125 1.6-0.4 1.6-0.925 2.175-3.25 1.65-6.525-0.1-0.575-0.225-1.175-0.375-1.775 0.6-0.175 1.175-0.35 1.725-0.575 3.125-1.2 4.825-2.85 4.825-4.7s-1.7-3.5-4.825-4.7zM23.125 3.675c1.025 0.6 1.375 2.45 0.95 5.075-0.075 0.525-0.2 1.075-0.35 1.65-1.3-0.3-2.675-0.5-4.125-0.625-0.85-1.2-1.725-2.275-2.6-3.25 1.85-1.825 3.725-3.075 5.25-3.075 0.325 0 0.625 0.075 0.875 0.225zM20.325 18.5c-0.45 0.8-0.975 1.6-1.525 2.4-0.925 0.075-1.85 0.1-2.8 0.1-0.975 0-1.9-0.025-2.8-0.1-0.55-0.8-1.050-1.6-1.5-2.4-0.475-0.825-0.925-1.675-1.325-2.5 0.4-0.825 0.85-1.675 1.325-2.5 0.45-0.8 0.975-1.6 1.525-2.4 0.925-0.075 1.85-0.1 2.8-0.1 0.975 0 1.9 0.025 2.8 0.1 0.55 0.8 1.050 1.6 1.5 2.4 0.475 0.825 0.925 1.675 1.325 2.5-0.425 0.825-0.85 1.65-1.325 2.5zM22.4 17.675c0.375 0.875 0.675 1.725 0.95 2.575-0.85 0.2-1.75 0.35-2.7 0.475 0.3-0.475 0.625-0.975 0.9-1.5 0.3-0.525 0.575-1.050 0.85-1.55zM16 24.45c-0.6-0.65-1.175-1.35-1.725-2.075 0.575 0.025 1.15 0.050 1.725 0.050s1.15-0.025 1.725-0.050c-0.55 0.725-1.125 1.425-1.725 2.075zM11.35 20.7c-0.95-0.125-1.85-0.275-2.7-0.475 0.275-0.825 0.575-1.7 0.95-2.575 0.275 0.5 0.55 1.025 0.85 1.525 0.3 0.55 0.6 1.025 0.9 1.525zM9.6 14.325c-0.375-0.875-0.675-1.725-0.95-2.575 0.85-0.2 1.75-0.35 2.7-0.475-0.3 0.475-0.625 0.975-0.9 1.5-0.3 0.525-0.575 1.050-0.85 1.55zM16 7.55c0.6 0.65 1.175 1.35 1.725 2.075-0.575-0.025-1.15-0.050-1.725-0.050s-1.15 0.025-1.725 0.050c0.55-0.725 1.125-1.425 1.725-2.075zM21.55 12.8l-0.9-1.5c0.95 0.125 1.85 0.275 2.7 0.475-0.275 0.825-0.575 1.7-0.95 2.575-0.275-0.525-0.55-1.050-0.85-1.55zM7.925 8.75c-0.425-2.625-0.075-4.475 0.95-5.075 0.25-0.15 0.55-0.225 0.875-0.225 1.5 0 3.375 1.225 5.25 3.075-0.875 0.95-1.75 2.050-2.6 3.25-1.45 0.125-2.825 0.35-4.125 0.625-0.15-0.575-0.25-1.125-0.35-1.65zM1.75 16c0-1.175 1.425-2.425 3.925-3.35 0.5-0.2 1.050-0.375 1.6-0.525 0.4 1.25 0.9 2.575 1.5 3.9-0.6 1.325-1.125 2.625-1.5 3.875-3.45-1-5.525-2.5-5.525-3.9zM8.875 28.325c-1.025-0.6-1.375-2.45-0.95-5.075 0.075-0.525 0.2-1.075 0.35-1.65 1.3 0.3 2.675 0.5 4.125 0.625 0.85 1.2 1.725 2.275 2.6 3.25-1.85 1.825-3.725 3.075-5.25 3.075-0.325 0-0.625-0.075-0.875-0.225zM24.075 23.25c0.425 2.625 0.075 4.475-0.95 5.075-0.25 0.15-0.55 0.225-0.875 0.225-1.5 0-3.375-1.225-5.25-3.075 0.875-0.95 1.75-2.050 2.6-3.25 1.45-0.125 2.825-0.35 4.125-0.625 0.15 0.575 0.25 1.125 0.35 1.65zM26.325 19.35c-0.5 0.2-1.050 0.375-1.6 0.525-0.4-1.25-0.9-2.575-1.5-3.9 0.6-1.325 1.125-2.625 1.5-3.875 3.45 1 5.525 2.5 5.525 3.9 0 1.175-1.45 2.425-3.925 3.35z"></path>
</symbol>
<symbol id="mongodb" viewBox="0 0 32 32">
<path d="M22.623 14.32c-0.093-1.197-0.374-2.352-0.765-3.483-0.811-2.526-2.113-4.761-3.946-6.685-0.463-0.486-0.979-0.932-1.302-1.538-0.204-0.383-0.399-0.771-0.599-1.157l-0.126-0.318c-0.021 0.073-0.035 0.099-0.036 0.125-0.016 0.629-0.373 1.056-0.817 1.454-0.499 0.448-0.964 0.935-1.444 1.404l-1.475 1.941c-0.398 0.731-0.796 1.463-1.193 2.194l-0.797 2.154-0.024 0.034c-0.439 1.442-0.655 2.925-0.762 4.422-0.040 0.563 0.005 1.134 0.037 1.7 0.045 0.809 0.186 1.604 0.396 2.386 0.765 2.843 2.319 5.201 4.443 7.205 0.395 0.372 0.8 0.711 1.212 1.065 0.070-0.241 0.127-0.483 0.191-0.724s0.129-0.479 0.172-0.72c-0.043 0.241-0.092 0.48-0.14 0.72l-0.207 0.724 0.184 0.625 0.171 0.971 0.082 1.013c-0.001 0.206-0.009 0.412 0.004 0.617 0.003 0.052 0.072 0.101 0.111 0.151l0.344 0.121 0.358 0.14-0.061-0.901-0.003-0.887 0.124-1.351 0.090-0.294 0.257-0.455c0.317-0.255 0.657-0.486 0.946-0.77 0.523-0.514 1.044-1.034 1.511-1.596 0.581-0.692 1.096-1.473 1.516-2.31l0.031-0.069c0.28-0.571 0.544-1.154 0.763-1.75 0.192-0.526 0.312-1.079 0.463-1.62 0.014-0.039 0.032-0.077 0.040-0.117 0.314-1.46 0.366-2.935 0.251-4.421zM16.723 26.664v0 0z"></path>
</symbol>
<symbol id="github" viewBox="0 0 32 32">
<path d="M16 1.276c-8.337 0-15.097 6.759-15.097 15.097 0 6.671 4.326 12.329 10.324 14.326 0.754 0.14 1.031-0.328 1.031-0.726 0-0.36-0.014-1.549-0.021-2.811-4.2 0.913-5.086-1.781-5.086-1.781-0.687-1.745-1.676-2.209-1.676-2.209-1.37-0.937 0.103-0.918 0.103-0.918 1.516 0.106 2.314 1.556 2.314 1.556 1.347 2.308 3.532 1.64 4.393 1.255 0.136-0.976 0.527-1.642 0.959-2.019-3.353-0.381-6.878-1.676-6.878-7.461 0-1.648 0.59-2.995 1.556-4.053-0.157-0.38-0.674-1.915 0.146-3.995 0 0 1.268-0.406 4.152 1.548 1.204-0.335 2.496-0.503 3.779-0.509 1.282 0.006 2.575 0.174 3.782 0.508 2.881-1.953 4.148-1.548 4.148-1.548 0.822 2.079 0.305 3.615 0.148 3.995 0.968 1.057 1.554 2.404 1.554 4.053 0 5.799-3.532 7.075-6.893 7.449 0.542 0.468 1.024 1.387 1.024 2.796 0 2.020-0.017 3.646-0.017 4.143 0 0.402 0.272 0.872 1.037 0.724 5.995-1.998 10.316-7.655 10.316-14.323-0-8.338-6.76-15.097-15.097-15.097z"></path>
<path d="M6.621 22.951c-0.033 0.075-0.151 0.098-0.259 0.046-0.11-0.049-0.171-0.151-0.136-0.227 0.032-0.078 0.151-0.099 0.26-0.047 0.11 0.049 0.173 0.152 0.134 0.227zM7.232 23.634c-0.072 0.067-0.213 0.036-0.308-0.070-0.099-0.105-0.117-0.246-0.044-0.314 0.074-0.067 0.211-0.035 0.31 0.070 0.098 0.107 0.118 0.246 0.043 0.314zM7.828 24.503c-0.093 0.064-0.244 0.004-0.338-0.13-0.093-0.134-0.093-0.296 0.003-0.36 0.093-0.064 0.242-0.006 0.338 0.127 0.092 0.136 0.092 0.297-0.003 0.363zM8.643 25.343c-0.082 0.091-0.259 0.067-0.388-0.058-0.132-0.122-0.168-0.295-0.086-0.386 0.084-0.091 0.261-0.066 0.391 0.058 0.132 0.122 0.171 0.295 0.083 0.386zM9.768 25.831c-0.037 0.118-0.206 0.172-0.377 0.122-0.171-0.052-0.283-0.19-0.248-0.309s0.206-0.175 0.378-0.121c0.171 0.052 0.283 0.189 0.247 0.309zM11.004 25.921c0.004 0.125-0.141 0.227-0.32 0.23-0.181 0.004-0.327-0.097-0.329-0.219 0-0.126 0.142-0.227 0.322-0.231 0.179-0.003 0.326 0.097 0.326 0.22zM12.153 25.726c0.021 0.121-0.103 0.246-0.281 0.279-0.175 0.032-0.338-0.043-0.36-0.163-0.021-0.125 0.105-0.249 0.28-0.282 0.178-0.031 0.338 0.043 0.361 0.166z"></path>
</symbol>
<symbol id="express" viewBox="0 0 32 32">
<path d="M31.668 24.61c-1.14 0.29-1.845 0.012-2.477-0.938-1.42-2.128-2.988-4.157-4.5-6.225-0.195-0.267-0.398-0.53-0.65-0.863-1.79 2.415-3.578 4.715-5.255 7.107-0.6 0.855-1.23 1.227-2.35 0.925l6.73-9.033-6.265-8.158c1.078-0.21 1.823-0.103 2.482 0.863 1.457 2.13 3.065 4.157 4.668 6.303 1.613-2.138 3.2-4.168 4.7-6.277 0.602-0.855 1.25-1.18 2.332-0.865-0.82 1.088-1.622 2.158-2.43 3.22-1.090 1.432-2.16 2.883-3.29 4.285-0.402 0.5-0.337 0.825 0.023 1.298 2.090 2.747 4.155 5.523 6.282 8.358zM0.333 15.435c0.18-0.902 0.3-1.822 0.55-2.707 1.5-5.357 7.65-7.585 11.875-4.265 2.475 1.947 3.090 4.692 2.967 7.787h-13.95c-0.21 5.553 3.787 8.905 8.883 7.195 1.787-0.6 2.84-2 3.367-3.75 0.268-0.878 0.71-1.015 1.535-0.765-0.422 2.19-1.38 4.020-3.38 5.165-3 1.715-7.282 1.16-9.535-1.223-1.33-1.4-1.895-3.143-2.145-5.025-0.037-0.3-0.115-0.595-0.175-0.892q0.008-0.76 0.008-1.52zM1.8 15.063h12.607c-0.082-4.015-2.582-6.867-6-6.893-3.75-0.030-6.445 2.755-6.607 6.893z"></path>
</symbol>
<symbol id="webpack" viewBox="0 0 32 32">
<path d="M29.323 24.525l-12.762 7.225v-5.628l7.94-4.372 4.823 2.775zM30.198 23.735v-15.098l-4.67 2.7v9.703l4.668 2.692zM2.678 24.525l12.75 7.22v-5.622l-7.942-4.372zM1.802 23.735v-15.098l4.67 2.7v9.703zM2.35 7.66l13.090-7.41v5.44l-8.455 4.65zM29.645 7.66l-13.085-7.41v5.44l8.455 4.647 4.635-2.678zM15.44 24.843l-7.848-4.317v-8.545l7.848 4.52zM16.56 24.843l7.848-4.313v-8.55l-7.848 4.52zM8.125 11l7.875-4.335 7.875 4.335-7.875 4.54-7.875-4.54z"></path>
</symbol>
<symbol id="nodejs" viewBox="0 0 32 32">
<path d="M28.581 20.187c-0.073 0-0.145-0.019-0.208-0.056l-0.663-0.392c-0.099-0.055-0.051-0.075-0.018-0.086 0.132-0.046 0.159-0.057 0.299-0.136 0.015-0.008 0.034-0.005 0.049 0.004l0.509 0.302c0.009 0.005 0.020 0.008 0.031 0.008s0.022-0.003 0.031-0.008l-0 0 1.984-1.145c0.018-0.011 0.030-0.031 0.030-0.053 0-0 0-0 0-0v0-2.29c0-0 0-0 0-0 0-0.023-0.012-0.043-0.030-0.055l-0-0-1.983-1.144c-0.009-0.005-0.019-0.008-0.031-0.008s-0.022 0.003-0.031 0.008l0-0-1.983 1.145c-0.019 0.011-0.031 0.031-0.031 0.054v2.29c0 0.022 0.012 0.043 0.031 0.053l0.544 0.314c0.295 0.147 0.476-0.026 0.476-0.201v-2.261c0-0.032 0.026-0.057 0.058-0.057h0.252c0.031 0 0.057 0.025 0.057 0.057v2.261c0 0.393-0.214 0.619-0.587 0.619-0.115 0-0.205 0-0.457-0.124l-0.52-0.299c-0.125-0.074-0.208-0.208-0.208-0.362 0 0 0 0 0 0v0-2.29c0-0.149 0.079-0.288 0.208-0.361l1.984-1.147c0.060-0.033 0.132-0.053 0.208-0.053s0.148 0.020 0.211 0.054l-0.002-0.001 1.984 1.147c0.128 0.074 0.208 0.213 0.208 0.361v2.29c-0 0.154-0.083 0.288-0.206 0.361l-0.002 0.001-1.984 1.145c-0.059 0.035-0.131 0.056-0.207 0.056-0 0-0.001 0-0.001 0h0zM29.195 18.61c-0.869 0-1.050-0.399-1.050-0.733 0-0.032 0.026-0.057 0.058-0.057 0 0 0 0 0 0h0.256c0 0 0 0 0 0 0.029 0 0.052 0.021 0.057 0.048l0 0c0.038 0.261 0.154 0.393 0.68 0.393 0.418 0 0.596-0.095 0.596-0.317 0-0.128-0.050-0.223-0.7-0.287-0.543-0.054-0.879-0.174-0.879-0.608 0-0.4 0.337-0.639 0.903-0.639 0.636 0 0.95 0.221 0.99 0.694 0 0.001 0 0.003 0 0.005 0 0.015-0.006 0.029-0.015 0.039l0-0c-0.011 0.011-0.025 0.018-0.042 0.018h-0.258c-0 0-0 0-0 0-0.027 0-0.050-0.019-0.056-0.044l-0-0c-0.062-0.275-0.212-0.363-0.62-0.363-0.456 0-0.509 0.159-0.509 0.278 0 0.144 0.063 0.186 0.679 0.268 0.61 0.081 0.899 0.195 0.899 0.623 0 0.433-0.36 0.681-0.989 0.681zM24.495 17.108c0.078-0.046 0.127-0.129 0.127-0.22v-0.588c0-0.090-0.048-0.174-0.127-0.22l-2.091-1.214c-0.037-0.022-0.081-0.034-0.128-0.034s-0.091 0.013-0.128 0.035l0.001-0.001-2.104 1.215c-0.076 0.045-0.127 0.127-0.127 0.22v0 2.429c0 0.091 0.049 0.176 0.128 0.221l2.091 1.191c0.077 0.044 0.172 0.044 0.249 0.002l1.265-0.703c0.039-0.022 0.065-0.064 0.065-0.111s-0.025-0.088-0.063-0.11l-0.001-0-2.117-1.215c-0.038-0.022-0.064-0.063-0.064-0.11v0-0.762c0-0.046 0.024-0.087 0.064-0.11l0.659-0.38c0.018-0.011 0.040-0.017 0.063-0.017s0.045 0.006 0.064 0.017l-0.001-0 0.659 0.38c0.038 0.022 0.064 0.063 0.064 0.11v0 0.599c0 0 0 0 0 0.001 0 0.070 0.057 0.127 0.127 0.127 0.024 0 0.046-0.006 0.065-0.018l-0.001 0 1.26-0.733zM22.246 16.994c0.007-0.004 0.015-0.006 0.024-0.006s0.017 0.002 0.025 0.006l-0-0 0.404 0.233c0.015 0.009 0.024 0.025 0.024 0.042v0.466c0 0.017-0.009 0.034-0.024 0.042l-0.404 0.233c-0.007 0.004-0.015 0.007-0.024 0.007s-0.017-0.002-0.025-0.007l0 0-0.404-0.233c-0.015-0.009-0.024-0.024-0.024-0.042 0-0 0-0 0-0v0-0.466c0-0.017 0.009-0.034 0.024-0.042l0.404-0.233zM16.771 17.963c0 0.023-0.012 0.044-0.032 0.055l-0.723 0.416c-0.009 0.005-0.020 0.009-0.032 0.009s-0.023-0.003-0.032-0.009l0 0-0.723-0.416c-0.019-0.011-0.032-0.032-0.032-0.055v0-0.834c0-0.023 0.012-0.044 0.032-0.055l0.723-0.417c0.009-0.006 0.020-0.009 0.032-0.009s0.023 0.003 0.032 0.009l-0-0 0.723 0.417c0.019 0.011 0.031 0.032 0.032 0.055v0 0.834zM16.966 11.784c-0.018-0.010-0.039-0.016-0.061-0.016-0.070 0-0.127 0.057-0.128 0.127v3.229c-0 0.033-0.018 0.061-0.044 0.077l-0 0c-0.013 0.007-0.028 0.012-0.044 0.012s-0.032-0.004-0.045-0.012l0 0-0.527-0.304c-0.036-0.021-0.080-0.034-0.127-0.034s-0.090 0.013-0.128 0.035l0.001-0.001-2.104 1.214c-0.077 0.045-0.127 0.127-0.127 0.22v0 2.43c0 0.091 0.049 0.174 0.127 0.22l2.104 1.215c0.079 0.046 0.176 0.046 0.254 0l2.105-1.215c0.076-0.045 0.127-0.127 0.127-0.22v-6.057c0-0.092-0.050-0.177-0.13-0.222l-1.253-0.699zM9.559 14.852c0.036-0.021 0.080-0.034 0.127-0.034s0.091 0.013 0.128 0.035l-0.001-0.001 2.104 1.214c0.079 0.046 0.127 0.13 0.127 0.22v2.43c0 0.091-0.049 0.175-0.127 0.22l-2.104 1.215c-0.037 0.021-0.080 0.034-0.127 0.034s-0.091-0.013-0.128-0.035l0.001 0.001-2.104-1.215c-0.076-0.045-0.127-0.127-0.127-0.22v-2.431c0-0.090 0.048-0.174 0.127-0.22l2.104-1.214zM5.732 16.266c0-0.091-0.048-0.175-0.127-0.221l-2.104-1.211c-0.033-0.020-0.073-0.032-0.116-0.033h-0.022c-0.043 0.002-0.083 0.014-0.117 0.034l0.001-0.001-2.104 1.211c-0.077 0.045-0.127 0.127-0.127 0.221 0 0 0 0 0 0v0l0.004 3.26c0 0.046 0.024 0.088 0.064 0.11 0.018 0.011 0.040 0.018 0.063 0.018s0.045-0.007 0.064-0.018l-0.001 0 1.25-0.716c0.079-0.047 0.127-0.13 0.127-0.221v-1.523c0-0.091 0.048-0.175 0.127-0.22l0.533-0.306c0.036-0.022 0.079-0.034 0.126-0.034 0 0 0.001 0 0.001 0h-0c0.043 0 0.088 0.011 0.127 0.034l0.532 0.306c0.079 0.046 0.127 0.129 0.127 0.22v1.523c0 0.091 0.049 0.174 0.127 0.221l1.25 0.716c0.018 0.011 0.040 0.017 0.063 0.017 0.070 0 0.127-0.057 0.127-0.126v-0l0.005-3.26z"></path>
</symbol>
<symbol id="javascript" viewBox="0 0 32 32">
<path d="M0.5 0.25v31.25h31.25v-31.25h-31.25zM17.030 26.878c-0.461 0.937-1.342 1.553-2.362 1.85-1.568 0.36-3.067 0.155-4.183-0.515-0.746-0.458-1.329-1.163-1.725-1.975l2.38-1.457c0.021 0.009 0.083 0.122 0.167 0.268 0.303 0.509 0.565 0.869 1.080 1.121 0.505 0.172 1.615 0.283 2.044-0.607 0.262-0.453 0.178-1.907 0.178-3.516-0-2.529 0.011-5.047 0.011-7.547h2.927c0 2.75 0.015 5.355 0 8.038 0.006 1.645 0.149 3.111-0.517 4.34zM29.173 26.051c-1.018 3.48-6.691 3.593-8.957 1.294-0.479-0.541-0.779-0.824-1.065-1.449 1.205-0.693 1.205-0.693 2.377-1.371 0.637 0.979 1.226 1.517 2.285 1.737 1.437 0.175 2.883-0.318 2.558-1.845-0.333-1.247-2.942-1.55-4.718-2.883-1.803-1.211-2.225-4.153-0.744-5.834 0.494-0.622 1.336-1.086 2.219-1.309l0.922-0.119c1.77-0.036 2.877 0.432 3.689 1.339 0.226 0.229 0.41 0.476 0.756 1.011-0.943 0.601-0.94 0.595-2.291 1.47-0.288-0.622-0.767-1.012-1.273-1.181-0.785-0.238-1.776 0.021-1.982 0.851-0.071 0.256-0.056 0.494 0.057 0.916 0.318 0.726 1.386 1.041 2.344 1.482 2.758 1.119 3.689 2.318 3.918 3.745 0.221 1.229-0.053 2.026-0.095 2.145z"></path>
</symbol>
<symbol id="sass" viewBox="0 0 32 32">
<path d="M0.305 14.039c0 0.176 0.052 0.292 0.081 0.405 0.189 0.733 0.595 1.363 1.077 1.936 0.686 0.818 1.527 1.477 2.389 2.096 0.747 0.537 1.509 1.062 2.259 1.595 0.129 0.091 0.25 0.197 0.39 0.309-0.12 0.065-0.22 0.122-0.324 0.175-0.99 0.502-1.942 1.065-2.82 1.747-0.529 0.411-1.040 0.848-1.402 1.419-0.581 0.918-0.787 1.896-0.354 2.94 0.127 0.305 0.32 0.569 0.592 0.763 0.088 0.063 0.187 0.125 0.29 0.15 0.264 0.062 0.534 0.103 0.802 0.152l0.758-0c0.838-0.075 1.602-0.362 2.292-0.838 1.078-0.744 1.804-1.741 2.116-3.022 0.227-0.93 0.236-1.862-0.031-2.788-0.032-0.107-0.062-0.191-0.096-0.273l0.007 0.020c-0.033-0.083-0.071-0.164-0.116-0.268l1.719-0.988 0.026 0.022c-0.031 0.102-0.065 0.204-0.093 0.308-0.204 0.746-0.34 1.505-0.291 2.279 0.052 0.825 0.282 1.597 0.765 2.287 0.39 0.558 1.321 0.578 1.736 0.019 0.147-0.199 0.29-0.407 0.397-0.628 0.28-0.579 0.54-1.168 0.807-1.753l0.047-0.107c-0.019 0.277-0.042 0.52-0.052 0.764-0.016 0.38 0.006 0.758 0.136 1.12 0.111 0.309 0.3 0.541 0.655 0.581 0.242 0.028 0.436-0.083 0.614-0.224 0.274-0.218 0.499-0.484 0.666-0.786l0.007-0.013c0.475-0.873 0.963-1.74 1.394-2.635 0.466-0.968 0.873-1.964 1.306-2.948l0.072-0.174c0.102 0.402 0.174 0.795 0.305 1.168 0.152 0.432 0.341 0.854 0.547 1.264 0.097 0.194 0.086 0.32-0.049 0.482-0.564 0.68-1.118 1.368-1.673 2.056-0.123 0.152-0.245 0.306-0.347 0.472-0.059 0.098-0.101 0.213-0.119 0.336l-0.001 0.005c-0.003 0.020-0.005 0.043-0.005 0.067 0 0.21 0.15 0.386 0.348 0.426l0.003 0c0.153 0.034 0.328 0.054 0.509 0.054 0.059 0 0.118-0.002 0.176-0.006l-0.008 0c0.774-0.057 1.477-0.329 2.099-0.789 0.805-0.596 1.064-1.41 0.869-2.375-0.053-0.262-0.146-0.516-0.237-0.768-0.041-0.114-0.044-0.194 0.031-0.299 0.644-0.919 1.194-1.895 1.705-2.892 0.020-0.039 0.041-0.078 0.076-0.12 0.166 0.863 0.415 1.694 0.862 2.448-0.228 0.22-0.454 0.419-0.658 0.639-0.45 0.483-0.84 1.009-1.043 1.649-0.087 0.276-0.155 0.556-0.116 0.851 0.061 0.458 0.436 0.755 0.886 0.651 0.963-0.223 1.795-0.677 2.403-1.481 0.409-0.541 0.446-1.145 0.275-1.778-0.047-0.172-0.103-0.341-0.163-0.538 0.238-0.074 0.47-0.162 0.709-0.217 1.245-0.284 2.476-0.235 3.675 0.215 0.7 0.262 1.266 0.702 1.602 1.393 0.41 0.845 0.183 1.646-0.613 2.18-0.074 0.050-0.159 0.089-0.221 0.151-0.033 0.038-0.053 0.088-0.053 0.142 0 0.009 0.001 0.018 0.002 0.027l-0-0.001c0.005 0.031 0.087 0.069 0.133 0.069 0.262-0.002 0.474-0.139 0.678-0.28 0.511-0.353 0.883-0.829 0.963-1.454l0.016-0.047-0.019-0.407c-0.008-0.023 0.006-0.047 0.004-0.064-0.108-0.911-0.595-1.618-1.303-2.172-0.82-0.641-1.788-0.905-2.812-0.947-0.081-0.004-0.177-0.006-0.273-0.006-0.778 0-1.523 0.14-2.212 0.396l0.044-0.014c-0.224 0.081-0.447 0.177-0.672 0.268-0.030-0.055-0.063-0.107-0.090-0.162-0.232-0.474-0.512-0.927-0.574-1.471-0.044-0.386-0.098-0.771-0.006-1.153 0.088-0.367 0.203-0.728 0.311-1.091 0.056-0.187 0.017-0.291-0.162-0.375-0.057-0.029-0.123-0.051-0.192-0.064l-0.004-0.001c-0.438-0.063-0.869-0.027-1.293 0.096-0.15 0.044-0.259 0.128-0.292 0.294-0.019 0.095-0.058 0.187-0.085 0.28-0.111 0.391-0.189 0.789-0.368 1.161-0.448 0.934-0.96 1.832-1.485 2.724-0.057 0.096-0.116 0.191-0.188 0.308-0.184-0.385-0.38-0.73-0.44-1.136-0.067-0.458-0.12-0.915-0.006-1.37 0.085-0.339 0.195-0.672 0.297-1.006 0.048-0.159 0.026-0.242-0.118-0.326-0.073-0.042-0.155-0.080-0.237-0.092-0.132-0.021-0.284-0.033-0.438-0.033-0.322 0-0.631 0.052-0.921 0.149l0.021-0.006c-0.136 0.044-0.207 0.132-0.248 0.272-0.122 0.413-0.226 0.836-0.397 1.229-0.694 1.59-1.407 3.172-2.12 4.753-0.149 0.33-0.323 0.649-0.491 0.971-0.043 0.081-0.104 0.153-0.158 0.23-0.043-0.050-0.059-0.085-0.059-0.119 0.001-0.203-0.023-0.413 0.016-0.609 0.172-0.881 0.309-1.479 0.458-2.072l-0.063 0.297c0.117-0.486 0.254-0.968 0.384-1.452 0.044-0.162 0.044-0.313-0.072-0.449-0.195-0.228-0.603-0.278-0.845-0.102l-0.107 0.061 0.021-0.172c0.051-0.37 0.061-0.738-0.040-1.102-0.127-0.454-0.45-0.715-0.921-0.701-0.22 0.007-0.45 0.044-0.653 0.124-0.855 0.335-1.512 0.928-2.072 1.642-0.052 0.066-0.115 0.12-0.186 0.162l-0.003 0.002c-0.723 0.401-1.449 0.797-2.174 1.195l-0.807 0.442c-0.216-0.206-0.413-0.421-0.636-0.602-0.682-0.556-1.375-1.098-2.061-1.648-0.609-0.487-1.198-0.995-1.649-1.64-0.336-0.48-0.552-1.005-0.572-1.599-0.026-0.756 0.188-1.447 0.573-2.091 0.493-0.823 1.164-1.483 1.903-2.082 0.781-0.633 1.626-1.169 2.502-1.66 1.225-0.686 2.485-1.293 3.837-1.694 1.386-0.411 2.791-0.646 4.241-0.482 0.57 0.064 1.123 0.195 1.632 0.474 0.389 0.213 0.709 0.492 0.857 0.929 0.146 0.43 0.142 0.865 0.041 1.301-0.206 0.883-0.69 1.612-1.299 2.263-0.998 1.067-2.216 1.793-3.588 2.273-0.714 0.259-1.544 0.444-2.404 0.518l-0.037 0.003c-0.682 0.057-1.35-0.003-1.996-0.241-0.428-0.157-0.8-0.398-1.1-0.747-0.053-0.063-0.122-0.13-0.222-0.072-0.098 0.057-0.115 0.15-0.082 0.245 0.055 0.156 0.105 0.319 0.191 0.46 0.214 0.351 0.527 0.606 0.871 0.825 0.661 0.42 1.399 0.562 2.165 0.594 1.162 0.050 2.296-0.123 3.413-0.435 1.596-0.445 2.983-1.231 4.096-2.471 0.927-1.033 1.588-2.198 1.73-3.605 0.069-0.687-0.005-1.359-0.326-1.986-0.349-0.679-0.903-1.183-1.566-1.531-0.965-0.506-2.008-0.801-3.083-0.801h-1.078c-1.303 0-2.562 0.373-3.786 0.819-0.927 0.337-1.835 0.735-2.717 1.176-1.921 0.96-3.709 2.117-5.179 3.708-0.732 0.793-1.352 1.668-1.708 2.697-0.087 0.235-0.183 0.548-0.263 0.867l-0.015 0.070zM7.286 22.59c-0.083 1.115-0.588 2.018-1.414 2.75-0.465 0.412-0.997 0.704-1.618 0.808-0.225 0.037-0.455 0.046-0.673-0.047-0.311-0.133-0.381-0.409-0.387-0.703-0.009-0.469 0.155-0.893 0.38-1.297 0.294-0.526 0.725-0.927 1.185-1.302 0.725-0.59 1.511-1.090 2.317-1.561l0.061-0.025c0.125 0.46 0.184 0.914 0.149 1.377zM13.576 17.745c-0.059 0.356-0.132 0.712-0.236 1.057-0.36 1.194-0.821 2.352-1.321 3.493-0.092 0.211-0.226 0.404-0.343 0.604-0.021 0.032-0.044 0.059-0.070 0.083l-0 0c-0.145 0.143-0.281 0.135-0.354-0.052-0.085-0.217-0.137-0.449-0.182-0.679-0.030-0.154-0.023-0.316-0.033-0.474 0.010-1.123 0.352-2.145 0.934-3.095 0.24-0.392 0.501-0.765 0.899-1.014 0.115-0.073 0.247-0.133 0.388-0.174l0.011-0.003c0.213-0.060 0.343 0.038 0.308 0.252zM17.867 23.212l1.542-1.801c0.064 0.669-1.073 2.004-1.542 1.801zM22.793 22c-0.109 0.063-0.228 0.108-0.34 0.165-0.102 0.053-0.136-0-0.139-0.088-0-0.004-0-0.010-0-0.015 0-0.059 0.009-0.116 0.024-0.17l-0.001 0.004c0.208-0.735 0.591-1.361 1.162-1.872l0.040-0.020c0.271 0.759-0.042 1.592-0.747 1.995z"></path>
</symbol>
<symbol id="html5" viewBox="0 0 32 32">
<path d="M2.258 0.5l2.501 28.023 11.224 3.1 11.255-3.097 2.504-28.027h-27.484zM24.54 7.135l-0.157 1.793-0.069 0.822h-13.166l0.314 3.5h12.539l-0.084 0.868-0.808 9.030-0.059 0.567-7.058 1.942-7.044-1.856-0.478-5.302h3.454l0.245 2.73 3.833 1.020v-0.137l3.839-0.969 0.401-4.395h-11.925l-0.846-9.529-0.082-0.971h17.235l-0.082 0.885z"></path>
</symbol>
<symbol id="figma" viewBox="0 0 32 32">
<path d="M11.375 32.25c2.975 0 5.375-2.4 5.375-5.375v-5.375h-5.375c-2.975 0-5.375 2.4-5.375 5.375s2.4 5.375 5.375 5.375zM6 16.125c0-2.975 2.4-5.375 5.375-5.375h5.375v10.75h-5.375c-2.975 0-5.375-2.4-5.375-5.375zM6 5.375c0-2.975 2.4-5.375 5.375-5.375h5.375v10.75h-5.375c-2.975 0-5.375-2.4-5.375-5.375zM16.75 0h5.375c2.975 0 5.375 2.4 5.375 5.375s-2.4 5.375-5.375 5.375h-5.375zM27.5 16.125c0 2.975-2.4 5.375-5.375 5.375s-5.375-2.4-5.375-5.375 2.4-5.375 5.375-5.375 5.375 2.4 5.375 5.375z"></path>
</symbol>
<symbol id="css" viewBox="0 0 32 32">
<path d="M2.19 0.25l2.514 28.221 11.28 3.145 11.311-3.157 2.516-28.209h-27.62zM24.588 6.715l-0.837 9.401 0.003 0.051-0.003 0.117v-0.001l-0.595 6.573-0.066 0.584-7.096 1.966-7.078-1.972-0.479-5.435h3.471l0.246 2.764 3.846 1.044 3.861-1.057 0.408-4.5h-8.071l-0.069-0.761-0.158-1.782-0.083-0.957h8.687l0.316-3.5h-13.232l-0.069-0.76-0.157-1.783-0.083-0.957h17.32l-0.083 0.965z"></path>
</symbol>

<symbol id="git" viewBox="0 0 32 32">
<path d="M31.397 14.575l-13.972-13.971c-0.804-0.805-2.109-0.805-2.915 0l-3.246 3.246 2.443 2.443c0.392-0.187 0.83-0.293 1.293-0.293 1.657 0 3 1.343 3 3 0 0.463-0.105 0.902-0.293 1.293l3.999 3.999c0.392-0.187 0.83-0.293 1.293-0.293 1.657 0 3 1.343 3 3s-1.343 3-3 3-3-1.343-3-3c0-0.463 0.105-0.902 0.293-1.293l-3.999-3.999c-0.095 0.046-0.193 0.086-0.293 0.121v8.343c1.165 0.412 2 1.522 2 2.829 0 1.657-1.343 3-3 3s-3-1.343-3-3c0-1.306 0.835-2.417 2-2.829v-8.343c-1.165-0.412-2-1.522-2-2.829 0-0.463 0.105-0.902 0.293-1.293l-2.443-2.443-9.247 9.246c-0.805 0.806-0.805 2.11 0 2.915l13.973 13.971c0.804 0.805 2.109 0.805 2.915 0l13.906-13.906c0.805-0.805 0.805-2.111-0-2.915z"></path>
</symbol>

</defs>
</svg>